<mxfile host="app.diagrams.net" modified="2023-06-28T07:26:07.665Z" agent="Mozilla/5.0 (Windows NT 10.0; Win64; x64) AppleWebKit/537.36 (KHTML, like Gecko) Chrome/114.0.0.0 Safari/537.36" etag="UxGFDGz279mYhL6M0Img" version="21.5.1" type="github">
  <diagram name="Page-1" id="WyiXIJd1U91J6u8Udnyy">
    <mxGraphModel dx="2100" dy="1162" grid="1" gridSize="10" guides="1" tooltips="1" connect="1" arrows="1" fold="1" page="1" pageScale="1" pageWidth="827" pageHeight="1169" math="0" shadow="0">
      <root>
        <mxCell id="0" />
        <mxCell id="1" parent="0" />
        <mxCell id="1FNrej181n1RThrmHyVT-1" value="" style="rounded=0;whiteSpace=wrap;html=1;" parent="1" vertex="1">
          <mxGeometry x="360" y="200" width="150" height="270" as="geometry" />
        </mxCell>
        <mxCell id="1FNrej181n1RThrmHyVT-2" value="" style="rounded=1;whiteSpace=wrap;html=1;" parent="1" vertex="1">
          <mxGeometry x="397.5" y="360" width="75" height="30" as="geometry" />
        </mxCell>
        <mxCell id="1FNrej181n1RThrmHyVT-3" value="" style="rounded=1;whiteSpace=wrap;html=1;" parent="1" vertex="1">
          <mxGeometry x="397.5" y="400" width="75" height="30" as="geometry" />
        </mxCell>
        <mxCell id="1FNrej181n1RThrmHyVT-4" value="" style="rounded=1;whiteSpace=wrap;html=1;" parent="1" vertex="1">
          <mxGeometry x="375" y="230" width="120" height="110" as="geometry" />
        </mxCell>
        <mxCell id="1FNrej181n1RThrmHyVT-5" value="" style="rounded=0;whiteSpace=wrap;html=1;" parent="1" vertex="1">
          <mxGeometry x="1170" y="190" width="150" height="270" as="geometry" />
        </mxCell>
        <mxCell id="1FNrej181n1RThrmHyVT-6" value="" style="rounded=1;whiteSpace=wrap;html=1;" parent="1" vertex="1">
          <mxGeometry x="1207.5" y="350" width="75" height="30" as="geometry" />
        </mxCell>
        <mxCell id="1FNrej181n1RThrmHyVT-7" value="" style="rounded=1;whiteSpace=wrap;html=1;" parent="1" vertex="1">
          <mxGeometry x="1207.5" y="390" width="75" height="30" as="geometry" />
        </mxCell>
        <mxCell id="1FNrej181n1RThrmHyVT-8" value="" style="rounded=1;whiteSpace=wrap;html=1;" parent="1" vertex="1">
          <mxGeometry x="1185" y="220" width="120" height="110" as="geometry" />
        </mxCell>
        <mxCell id="1FNrej181n1RThrmHyVT-10" value="" style="rhombus;whiteSpace=wrap;html=1;" parent="1" vertex="1">
          <mxGeometry x="740" y="260" width="190" height="200" as="geometry" />
        </mxCell>
        <mxCell id="1FNrej181n1RThrmHyVT-11" value="" style="shape=actor;whiteSpace=wrap;html=1;" parent="1" vertex="1">
          <mxGeometry x="130" y="330" width="40" height="60" as="geometry" />
        </mxCell>
        <mxCell id="1FNrej181n1RThrmHyVT-12" value="" style="shape=actor;whiteSpace=wrap;html=1;" parent="1" vertex="1">
          <mxGeometry x="950" y="50" width="40" height="60" as="geometry" />
        </mxCell>
        <mxCell id="1FNrej181n1RThrmHyVT-13" value="" style="shape=loopLimit;whiteSpace=wrap;html=1;" parent="1" vertex="1">
          <mxGeometry x="600" y="60" width="150" height="90" as="geometry" />
        </mxCell>
        <mxCell id="1FNrej181n1RThrmHyVT-16" style="edgeStyle=orthogonalEdgeStyle;rounded=0;orthogonalLoop=1;jettySize=auto;html=1;exitX=0;exitY=0;exitDx=92;exitDy=21;exitPerimeter=0;entryX=0;entryY=0;entryDx=92;entryDy=39;entryPerimeter=0;" parent="1" edge="1">
          <mxGeometry relative="1" as="geometry">
            <mxPoint x="648" y="369" as="sourcePoint" />
            <mxPoint x="648" y="351" as="targetPoint" />
          </mxGeometry>
        </mxCell>
        <mxCell id="1FNrej181n1RThrmHyVT-19" value="" style="shape=doubleArrow;direction=south;whiteSpace=wrap;html=1;" parent="1" vertex="1">
          <mxGeometry x="805" y="460" width="60" height="250" as="geometry" />
        </mxCell>
        <mxCell id="1FNrej181n1RThrmHyVT-21" value="" style="html=1;shadow=0;dashed=0;align=center;verticalAlign=middle;shape=mxgraph.arrows2.jumpInArrow;dy=15;dx=38;arrowHead=55;" parent="1" vertex="1">
          <mxGeometry x="490" y="100" width="110" height="100" as="geometry" />
        </mxCell>
        <mxCell id="1FNrej181n1RThrmHyVT-23" value="" style="curved=1;endArrow=classic;html=1;rounded=0;entryX=0;entryY=0;entryDx=0;entryDy=0;exitX=1;exitY=0.75;exitDx=0;exitDy=0;strokeColor=#0000FF;" parent="1" source="1FNrej181n1RThrmHyVT-12" target="1FNrej181n1RThrmHyVT-5" edge="1">
          <mxGeometry width="50" height="50" relative="1" as="geometry">
            <mxPoint x="1060" y="150" as="sourcePoint" />
            <mxPoint x="1100" y="100" as="targetPoint" />
            <Array as="points">
              <mxPoint x="1110" y="150" />
              <mxPoint x="1060" y="100" />
            </Array>
          </mxGeometry>
        </mxCell>
        <mxCell id="1FNrej181n1RThrmHyVT-25" value="" style="html=1;shadow=0;dashed=0;align=center;verticalAlign=middle;shape=mxgraph.arrows2.arrow;dy=0.6;dx=40;flipH=1;notch=0;" parent="1" vertex="1">
          <mxGeometry x="930" y="325" width="240" height="70" as="geometry" />
        </mxCell>
        <mxCell id="1FNrej181n1RThrmHyVT-26" value="" style="rhombus;whiteSpace=wrap;html=1;" parent="1" vertex="1">
          <mxGeometry x="170" y="50" width="110" height="130" as="geometry" />
        </mxCell>
        <mxCell id="1FNrej181n1RThrmHyVT-28" value="" style="shape=flexArrow;endArrow=classic;html=1;rounded=0;exitX=0.731;exitY=0.804;exitDx=0;exitDy=0;exitPerimeter=0;entryX=0;entryY=0;entryDx=0;entryDy=0;" parent="1" source="1FNrej181n1RThrmHyVT-26" target="1FNrej181n1RThrmHyVT-1" edge="1">
          <mxGeometry width="50" height="50" relative="1" as="geometry">
            <mxPoint x="375" y="200" as="sourcePoint" />
            <mxPoint x="425" y="150" as="targetPoint" />
          </mxGeometry>
        </mxCell>
        <mxCell id="1FNrej181n1RThrmHyVT-32" value="" style="endArrow=classic;html=1;rounded=0;exitX=1;exitY=0.75;exitDx=0;exitDy=0;entryX=-0.014;entryY=0.642;entryDx=0;entryDy=0;entryPerimeter=0;" parent="1" source="1FNrej181n1RThrmHyVT-11" target="1FNrej181n1RThrmHyVT-1" edge="1">
          <mxGeometry width="50" height="50" relative="1" as="geometry">
            <mxPoint x="740" y="380" as="sourcePoint" />
            <mxPoint x="790" y="330" as="targetPoint" />
          </mxGeometry>
        </mxCell>
        <mxCell id="1FNrej181n1RThrmHyVT-33" value="Scopes to add&lt;br&gt;Justification&lt;br&gt;POC Emails" style="text;html=1;strokeColor=none;fillColor=none;align=center;verticalAlign=middle;whiteSpace=wrap;rounded=0;" parent="1" vertex="1">
          <mxGeometry x="383.75" y="250" width="102.5" height="80" as="geometry" />
        </mxCell>
        <mxCell id="1FNrej181n1RThrmHyVT-34" value="Request" style="text;html=1;strokeColor=none;fillColor=none;align=center;verticalAlign=middle;whiteSpace=wrap;rounded=0;" parent="1" vertex="1">
          <mxGeometry x="397.5" y="360" width="60" height="30" as="geometry" />
        </mxCell>
        <mxCell id="1FNrej181n1RThrmHyVT-35" value="Cancel;" style="text;html=1;strokeColor=none;fillColor=none;align=center;verticalAlign=middle;whiteSpace=wrap;rounded=0;" parent="1" vertex="1">
          <mxGeometry x="405" y="400" width="60" height="30" as="geometry" />
        </mxCell>
        <mxCell id="1FNrej181n1RThrmHyVT-36" value="List of Requests" style="text;html=1;strokeColor=none;fillColor=none;align=center;verticalAlign=middle;whiteSpace=wrap;rounded=0;" parent="1" vertex="1">
          <mxGeometry x="1211" y="240" width="60" height="100" as="geometry" />
        </mxCell>
        <mxCell id="1FNrej181n1RThrmHyVT-37" value="Approve" style="text;html=1;strokeColor=none;fillColor=none;align=center;verticalAlign=middle;whiteSpace=wrap;rounded=0;" parent="1" vertex="1">
          <mxGeometry x="1215" y="350" width="60" height="30" as="geometry" />
        </mxCell>
        <mxCell id="1FNrej181n1RThrmHyVT-38" value="Decline" style="text;html=1;strokeColor=none;fillColor=none;align=center;verticalAlign=middle;whiteSpace=wrap;rounded=0;" parent="1" vertex="1">
          <mxGeometry x="1215" y="390" width="60" height="30" as="geometry" />
        </mxCell>
        <mxCell id="1FNrej181n1RThrmHyVT-39" value="Once mail thread is over&lt;br&gt;POC should visit CDP UI to approve or decline it" style="text;html=1;strokeColor=none;fillColor=none;align=center;verticalAlign=middle;whiteSpace=wrap;rounded=0;" parent="1" vertex="1">
          <mxGeometry x="610" y="80" width="140" height="50" as="geometry" />
        </mxCell>
        <mxCell id="1FNrej181n1RThrmHyVT-40" value="&lt;font style=&quot;font-size: 18px;&quot;&gt;Mail Thread&lt;/font&gt;" style="text;html=1;strokeColor=none;fillColor=none;align=center;verticalAlign=middle;whiteSpace=wrap;rounded=0;" parent="1" vertex="1">
          <mxGeometry x="640" y="20" width="60" height="30" as="geometry" />
        </mxCell>
        <mxCell id="1FNrej181n1RThrmHyVT-41" value="&lt;font style=&quot;font-size: 18px;&quot;&gt;CDP UI&lt;/font&gt;" style="text;html=1;strokeColor=none;fillColor=none;align=center;verticalAlign=middle;whiteSpace=wrap;rounded=0;" parent="1" vertex="1">
          <mxGeometry x="382.5" y="160" width="82.5" height="30" as="geometry" />
        </mxCell>
        <mxCell id="1FNrej181n1RThrmHyVT-42" value="&lt;font style=&quot;font-size: 18px;&quot;&gt;CDP UI&lt;/font&gt;" style="text;html=1;strokeColor=none;fillColor=none;align=center;verticalAlign=middle;whiteSpace=wrap;rounded=0;" parent="1" vertex="1">
          <mxGeometry x="1199" y="150" width="82.5" height="30" as="geometry" />
        </mxCell>
        <mxCell id="1FNrej181n1RThrmHyVT-43" value="&lt;span style=&quot;font-size: 18px;&quot;&gt;Cosmos API&lt;/span&gt;" style="text;html=1;strokeColor=none;fillColor=none;align=center;verticalAlign=middle;whiteSpace=wrap;rounded=0;" parent="1" vertex="1">
          <mxGeometry x="762.68" y="335" width="144.63" height="50" as="geometry" />
        </mxCell>
        <mxCell id="1FNrej181n1RThrmHyVT-44" value="&lt;span style=&quot;font-size: 18px;&quot;&gt;COSMOS&lt;/span&gt;" style="text;html=1;strokeColor=none;fillColor=none;align=center;verticalAlign=middle;whiteSpace=wrap;rounded=0;" parent="1" vertex="1">
          <mxGeometry x="793.75" y="720" width="82.5" height="30" as="geometry" />
        </mxCell>
        <mxCell id="1FNrej181n1RThrmHyVT-45" value="" style="endArrow=classic;html=1;rounded=0;exitX=1;exitY=0.75;exitDx=0;exitDy=0;entryX=0;entryY=0.75;entryDx=0;entryDy=0;" parent="1" source="1FNrej181n1RThrmHyVT-39" target="1FNrej181n1RThrmHyVT-12" edge="1">
          <mxGeometry width="50" height="50" relative="1" as="geometry">
            <mxPoint x="780" y="180" as="sourcePoint" />
            <mxPoint x="830" y="130" as="targetPoint" />
          </mxGeometry>
        </mxCell>
        <mxCell id="1FNrej181n1RThrmHyVT-46" value="&lt;span style=&quot;font-size: 18px;&quot;&gt;IAM API&lt;/span&gt;" style="text;html=1;strokeColor=none;fillColor=none;align=center;verticalAlign=middle;whiteSpace=wrap;rounded=0;" parent="1" vertex="1">
          <mxGeometry x="183.75" y="100" width="82.5" height="30" as="geometry" />
        </mxCell>
        <mxCell id="1FNrej181n1RThrmHyVT-47" value="&lt;span style=&quot;font-size: 18px;&quot;&gt;User&lt;/span&gt;" style="text;html=1;strokeColor=none;fillColor=none;align=center;verticalAlign=middle;whiteSpace=wrap;rounded=0;" parent="1" vertex="1">
          <mxGeometry x="108.75" y="290" width="82.5" height="30" as="geometry" />
        </mxCell>
        <mxCell id="1FNrej181n1RThrmHyVT-48" value="&lt;span style=&quot;font-size: 18px;&quot;&gt;Approver&lt;/span&gt;" style="text;html=1;strokeColor=none;fillColor=none;align=center;verticalAlign=middle;whiteSpace=wrap;rounded=0;" parent="1" vertex="1">
          <mxGeometry x="928.75" y="10" width="82.5" height="30" as="geometry" />
        </mxCell>
        <mxCell id="1FNrej181n1RThrmHyVT-51" value="Vertical Container" style="swimlane;whiteSpace=wrap;html=1;startSize=10;" parent="1" vertex="1">
          <mxGeometry x="835" y="790" width="30" height="70" as="geometry" />
        </mxCell>
        <mxCell id="1FNrej181n1RThrmHyVT-20" value="" style="shape=datastore;whiteSpace=wrap;html=1;" parent="1" vertex="1">
          <mxGeometry x="650.01" y="710" width="361.24" height="350" as="geometry" />
        </mxCell>
        <mxCell id="1FNrej181n1RThrmHyVT-52" value="" style="rounded=0;whiteSpace=wrap;html=1;" parent="1" vertex="1">
          <mxGeometry x="673.75" y="860" width="120" height="160" as="geometry" />
        </mxCell>
        <mxCell id="1FNrej181n1RThrmHyVT-53" value="" style="rounded=0;whiteSpace=wrap;html=1;" parent="1" vertex="1">
          <mxGeometry x="835" y="860" width="120" height="160" as="geometry" />
        </mxCell>
        <mxCell id="1FNrej181n1RThrmHyVT-54" value="&lt;font style=&quot;font-size: 18px;&quot;&gt;Container&lt;/font&gt;" style="text;html=1;strokeColor=none;fillColor=none;align=center;verticalAlign=middle;whiteSpace=wrap;rounded=0;" parent="1" vertex="1">
          <mxGeometry x="700" y="870" width="60" height="30" as="geometry" />
        </mxCell>
        <mxCell id="1FNrej181n1RThrmHyVT-55" value="&lt;font style=&quot;font-size: 18px;&quot;&gt;Scopes related information&lt;/font&gt;" style="text;html=1;strokeColor=none;fillColor=none;align=center;verticalAlign=middle;whiteSpace=wrap;rounded=0;" parent="1" vertex="1">
          <mxGeometry x="683.75" y="925" width="100" height="95" as="geometry" />
        </mxCell>
        <mxCell id="1FNrej181n1RThrmHyVT-56" value="&lt;font style=&quot;font-size: 18px;&quot;&gt;Container&lt;/font&gt;" style="text;html=1;strokeColor=none;fillColor=none;align=center;verticalAlign=middle;whiteSpace=wrap;rounded=0;" parent="1" vertex="1">
          <mxGeometry x="860" y="870" width="60" height="30" as="geometry" />
        </mxCell>
        <mxCell id="1FNrej181n1RThrmHyVT-57" value="&lt;font style=&quot;font-size: 18px;&quot;&gt;approvals, justifications, requests tracking container&lt;/font&gt;" style="text;html=1;strokeColor=none;fillColor=none;align=center;verticalAlign=middle;whiteSpace=wrap;rounded=0;" parent="1" vertex="1">
          <mxGeometry x="837" y="920" width="113" height="90" as="geometry" />
        </mxCell>
        <mxCell id="1FNrej181n1RThrmHyVT-58" value="&lt;font style=&quot;font-size: 24px;&quot;&gt;Cosmos&lt;/font&gt;" style="text;html=1;strokeColor=none;fillColor=none;align=center;verticalAlign=middle;whiteSpace=wrap;rounded=0;" parent="1" vertex="1">
          <mxGeometry x="793.75" y="740" width="60" height="30" as="geometry" />
        </mxCell>
        <mxCell id="1FNrej181n1RThrmHyVT-59" value="&lt;font style=&quot;font-size: 14px;&quot;&gt;once the approver approves or declines, we will make Api call to update the same&lt;/font&gt;" style="text;html=1;strokeColor=none;fillColor=none;align=center;verticalAlign=middle;whiteSpace=wrap;rounded=0;" parent="1" vertex="1">
          <mxGeometry x="980" y="290" width="170" height="50" as="geometry" />
        </mxCell>
        <mxCell id="1FNrej181n1RThrmHyVT-60" value="&lt;font style=&quot;font-size: 14px;&quot;&gt;Ui changes based on data whetther it is appoved or declined&lt;/font&gt;" style="text;html=1;strokeColor=none;fillColor=none;align=center;verticalAlign=middle;whiteSpace=wrap;rounded=0;" parent="1" vertex="1">
          <mxGeometry x="560" y="310" width="180" height="30" as="geometry" />
        </mxCell>
        <mxCell id="1FNrej181n1RThrmHyVT-61" value="&lt;font style=&quot;font-size: 14px;&quot;&gt;we will using this for searching Emails from B2C for recomendations while looking for poc email&lt;/font&gt;" style="text;html=1;strokeColor=none;fillColor=none;align=center;verticalAlign=middle;whiteSpace=wrap;rounded=0;" parent="1" vertex="1">
          <mxGeometry x="140" y="200" width="200" height="30" as="geometry" />
        </mxCell>
        <mxCell id="1FNrej181n1RThrmHyVT-62" value="User has to login to approve or decline the request" style="text;html=1;strokeColor=none;fillColor=none;align=center;verticalAlign=middle;whiteSpace=wrap;rounded=0;" parent="1" vertex="1">
          <mxGeometry x="1050" y="80" width="130" height="30" as="geometry" />
        </mxCell>
        <mxCell id="dEheNe7zWdzZTcc1VNpO-1" value="" style="shape=doubleArrow;whiteSpace=wrap;html=1;" vertex="1" parent="1">
          <mxGeometry x="510" y="330" width="230" height="60" as="geometry" />
        </mxCell>
        <mxCell id="dEheNe7zWdzZTcc1VNpO-3" value="&lt;font style=&quot;font-size: 14px;&quot;&gt;By clicking on request or cancel option, we will update it in container&lt;/font&gt;" style="text;html=1;strokeColor=none;fillColor=none;align=center;verticalAlign=middle;whiteSpace=wrap;rounded=0;" vertex="1" parent="1">
          <mxGeometry x="525" y="395" width="235" height="30" as="geometry" />
        </mxCell>
        <mxCell id="dEheNe7zWdzZTcc1VNpO-4" value="&lt;font style=&quot;font-size: 14px;&quot;&gt;a mail will be sent for a new requesat or cancellation of existing request&lt;/font&gt;" style="text;html=1;strokeColor=none;fillColor=none;align=center;verticalAlign=middle;whiteSpace=wrap;rounded=0;" vertex="1" parent="1">
          <mxGeometry x="510" y="160" width="192.5" height="30" as="geometry" />
        </mxCell>
      </root>
    </mxGraphModel>
  </diagram>
</mxfile>
